<?xml version="1.0" encoding="iso-8859-1"?>
<!-- Generator: Adobe Illustrator 19.0.0, SVG Export Plug-In . SVG Version: 6.00 Build 0)  -->
<svg version="1.1" id="Capa_1" xmlns="http://www.w3.org/2000/svg" xmlns:xlink="http://www.w3.org/1999/xlink" x="0px"
     y="0px"
     viewBox="0 0 384 384" style="enable-background:new 0 0 384 384;" xml:space="preserve">
<g>
	<g>
		<path d="M324,88c24.256,0,44-19.736,44-44c0-24.264-19.744-44-44-44c-24.256,0-44,19.736-44,44c0,3.584,0.48,7.056,1.288,10.392
			L233.128,69.6C177.12,28.864,121.48,20.288,93.024,48.744c-4.32,4.312-7.808,9.352-10.488,14.968
			C74.032,75.32,25.264,147.096,57.52,223.856l-36.816,36.816c-0.744,0.744-1.416,1.568-2.008,2.448
			c-0.264,0.392-0.44,0.816-0.664,1.224c-0.28,0.504-0.584,0.992-0.808,1.536c-0.216,0.528-0.344,1.072-0.504,1.616
			c-0.136,0.456-0.312,0.896-0.408,1.368C16.112,269.904,16,270.952,16,272v96c0,8.832,7.168,16,16,16c8.832,0,16-7.168,16-16
			v-57.376l36.688,36.688l32,32C119.816,382.44,123.904,384,128,384s8.184-1.56,11.312-4.688c6.248-6.248,6.248-16.376,0-22.624
			L118.624,336l25.528-25.528c18.616,7.776,36.944,10.864,54.192,10.864c54.216,0,97.696-29.824,105.968-35.88
			c5.6-2.672,10.624-6.152,14.92-10.464c28.472-28.472,19.896-84.12-20.84-140.12L313.6,86.704C316.944,87.52,320.416,88,324,88z
			 M96,313.368L54.624,272l19.056-19.056c0.296,0.408,0.648,0.8,0.944,1.216c1.76,2.432,3.672,4.816,5.608,7.192
			c0.968,1.192,1.864,2.408,2.872,3.584c3.024,3.52,6.192,6.992,9.584,10.376c3.4,3.4,6.88,6.584,10.416,9.616
			c1.096,0.944,2.232,1.776,3.344,2.688c2.464,2.008,4.928,3.976,7.448,5.808c0.392,0.288,0.768,0.624,1.16,0.904L96,313.368z
			 M148.024,277.048c-11.376-5.832-22.384-14.032-32.712-24.36s-18.52-21.336-24.4-32.784c-15.776-30.376-13.832-61.16-6.872-85.944
			c10.616,29.824,31.584,61.888,59.848,90.152c28.28,28.28,60.368,49.264,90.208,59.872
			C209.344,290.92,178.544,292.84,148.024,277.048z M296.592,252.384c-4.864,4.88-12.296,7.36-22.072,7.368
			c-0.016,0-0.032,0-0.048,0c-30.192,0-72.56-22.864-107.96-58.264c-35.416-35.416-58.288-77.816-58.264-108.008
			c0.008-9.776,2.488-17.2,7.384-22.088c13.376-13.376,44.4-8.4,77.984,10.688l-46.44,14.664
			c-8.424,2.664-13.104,11.648-10.44,20.072c2.664,8.432,11.68,13.072,20.08,10.44L279.472,88.52l-38.736,122.664
			c-2.664,8.424,2.016,17.416,10.44,20.072c1.608,0.504,3.232,0.744,4.832,0.744c6.792,0,13.096-4.36,15.248-11.184l14.664-46.44
			C305.008,207.976,309.976,239,296.592,252.384z M324,32c6.616,0,12,5.384,12,12c0,6.616-5.384,12-12,12c-6.616,0-12-5.384-12-12
			C312,37.384,317.384,32,324,32z"/>
	</g>
</g>
    <g>
</g>
    <g>
</g>
    <g>
</g>
    <g>
</g>
    <g>
</g>
    <g>
</g>
    <g>
</g>
    <g>
</g>
    <g>
</g>
    <g>
</g>
    <g>
</g>
    <g>
</g>
    <g>
</g>
    <g>
</g>
    <g>
</g>
</svg>
